#N canvas 521 213 580 237 10;
#X obj 60 106 random 2;
#X obj 60 75 bng 15 250 50 0 empty empty empty 17 7 0 10 -262144 -1
-1;
#X floatatom 60 138 5 0 0 0 - - -;
#X obj 193 104 random 2;
#X obj 193 73 bng 15 250 50 0 empty empty empty 17 7 0 10 -262144 -1
-1;
#X obj 193 125 sel 0;
#X obj 193 150 bng 15 250 50 0 empty empty empty 17 7 0 10 -262144
-1 -1;
#X obj 220 150 bng 15 250 50 0 empty empty empty 17 7 0 10 -262144
-1 -1;
#X obj 313 104 random 2;
#X obj 313 125 sel 0;
#X obj 313 150 bng 15 250 50 0 empty empty empty 17 7 0 10 -262144
-1 -1;
#X obj 340 150 bng 15 250 50 0 empty empty empty 17 7 0 10 -262144
-1 -1;
#X obj 313 52 tgl 15 0 empty empty empty 17 7 0 10 -262144 -1 -1 0
1;
#X obj 313 77 metro 600;
#X obj 433 104 random 2;
#X obj 433 125 sel 0;
#X obj 433 150 bng 15 250 50 0 empty empty empty 17 7 0 10 -262144
-1 -1;
#X obj 460 150 bng 15 250 50 0 empty empty empty 17 7 0 10 -262144
-1 -1;
#X obj 433 54 tgl 15 0 empty empty empty 17 7 0 10 -262144 -1 -1 0
1;
#X obj 433 77 metro;
#X obj 460 12 loadbang;
#X msg 460 33 600;
#X floatatom 460 54 5 0 0 0 - - -;
#X connect 0 0 2 0;
#X connect 1 0 0 0;
#X connect 3 0 5 0;
#X connect 4 0 3 0;
#X connect 5 0 6 0;
#X connect 5 1 7 0;
#X connect 8 0 9 0;
#X connect 9 0 10 0;
#X connect 9 1 11 0;
#X connect 12 0 13 0;
#X connect 13 0 8 0;
#X connect 14 0 15 0;
#X connect 15 0 16 0;
#X connect 15 1 17 0;
#X connect 18 0 19 0;
#X connect 19 0 14 0;
#X connect 20 0 21 0;
#X connect 21 0 22 0;
#X connect 22 0 19 1;
