#N canvas 521 98 357 379 10;
#X obj 56 85 tabplay~ step1;
#X obj 66 105 tabplay~ step2;
#X obj 76 125 tabplay~ step3;
#X obj 86 145 tabplay~ step4;
#X obj 96 165 tabplay~ step5;
#X obj 106 185 tabplay~ step6;
#N canvas 378 55 793 530 samples 0;
#X obj 39 275 soundfiler;
#X msg 39 130 read -resize audio/foot1.wav step1;
#X msg 49 150 read -resize audio/foot2.wav step2;
#X msg 59 170 read -resize audio/foot3.wav step3;
#X msg 69 190 read -resize audio/foot4.wav step4;
#X msg 79 210 read -resize audio/foot5.wav step5;
#X msg 89 230 read -resize audio/foot6.wav step6;
#N canvas 0 22 450 278 (subpatch) 0;
#X array step1 16450 float 2;
#X coords 0 1 16450 -1 200 140 1;
#X restore 341 31 graph;
#N canvas 0 22 450 278 (subpatch) 0;
#X array step2 19150 float 2;
#X coords 0 1 19150 -1 200 140 1;
#X restore 340 190 graph;
#N canvas 0 22 450 278 (subpatch) 0;
#X array step3 20455 float 2;
#X coords 0 1 20455 -1 200 140 1;
#X restore 338 352 graph;
#N canvas 0 22 450 278 (subpatch) 0;
#X array step4 19926 float 2;
#X coords 0 1 19926 -1 200 140 1;
#X restore 552 30 graph;
#N canvas 0 22 450 278 (subpatch) 0;
#X array step5 18550 float 2;
#X coords 0 1 18550 -1 200 140 1;
#X restore 553 189 graph;
#N canvas 0 22 450 278 (subpatch) 0;
#X array step6 22100 float 2;
#X coords 0 1 22100 -1 200 140 1;
#X restore 554 351 graph;
#X obj 59 59 loadbang;
#X connect 1 0 0 0;
#X connect 2 0 0 0;
#X connect 3 0 0 0;
#X connect 4 0 0 0;
#X connect 5 0 0 0;
#X connect 6 0 0 0;
#X connect 13 0 1 0;
#X connect 13 0 2 0;
#X connect 13 0 3 0;
#X connect 13 0 4 0;
#X connect 13 0 5 0;
#X connect 13 0 6 0;
#X restore 235 140 pd samples;
#X obj 55 285 *~;
#X obj 116 250 dbtorms;
#X obj 119 229 hsl 128 15 0 100 0 0 empty empty volume -2 -8 0 10 -262144
-1 -1 11100 1;
#X obj 46 316 dac~;
#X obj 75 25 bng 15 250 50 0 empty empty empty 17 7 0 10 -262144 -1
-1;
#X connect 0 0 7 0;
#X connect 1 0 7 0;
#X connect 2 0 7 0;
#X connect 3 0 7 0;
#X connect 4 0 7 0;
#X connect 5 0 7 0;
#X connect 7 0 10 0;
#X connect 7 0 10 1;
#X connect 8 0 7 1;
#X connect 9 0 8 0;
