#N canvas 701 136 307 595 10;
#X obj 52 168 sel 0;
#X obj 52 193 bng 15 250 50 0 empty empty empty 17 7 0 10 -262144 -1
-1;
#X obj 79 193 bng 15 250 50 0 empty empty empty 17 7 0 10 -262144 -1
-1;
#X obj 59 60 tgl 15 0 empty empty empty 17 7 0 10 -262144 -1 -1 1 1
;
#X obj 59 83 metro;
#X obj 86 18 loadbang;
#X floatatom 86 60 5 0 0 0 - - -;
#X obj 55 108 f;
#X obj 88 112 + 1;
#X obj 53 139 mod 2;
#X obj 38 318 tabplay~ step1;
#X obj 48 338 tabplay~ step2;
#X obj 58 358 tabplay~ step3;
#X obj 68 378 tabplay~ step4;
#X obj 78 398 tabplay~ step5;
#X obj 88 418 tabplay~ step6;
#N canvas 378 55 793 530 samples 0;
#X obj 39 275 soundfiler;
#X msg 39 130 read -resize audio/foot1.wav step1;
#X msg 49 150 read -resize audio/foot2.wav step2;
#X msg 59 170 read -resize audio/foot3.wav step3;
#X msg 69 190 read -resize audio/foot4.wav step4;
#X msg 79 210 read -resize audio/foot5.wav step5;
#X msg 89 230 read -resize audio/foot6.wav step6;
#N canvas 0 22 450 278 (subpatch) 0;
#X array step1 16450 float 2;
#X coords 0 1 16450 -1 200 140 1;
#X restore 341 31 graph;
#N canvas 0 22 450 278 (subpatch) 0;
#X array step2 19150 float 2;
#X coords 0 1 19150 -1 200 140 1;
#X restore 340 190 graph;
#N canvas 0 22 450 278 (subpatch) 0;
#X array step3 20455 float 2;
#X coords 0 1 20455 -1 200 140 1;
#X restore 338 352 graph;
#N canvas 0 22 450 278 (subpatch) 0;
#X array step4 19926 float 2;
#X coords 0 1 19926 -1 200 140 1;
#X restore 552 30 graph;
#N canvas 0 22 450 278 (subpatch) 0;
#X array step5 18550 float 2;
#X coords 0 1 18550 -1 200 140 1;
#X restore 553 189 graph;
#N canvas 0 22 450 278 (subpatch) 0;
#X array step6 22100 float 2;
#X coords 0 1 22100 -1 200 140 1;
#X restore 554 351 graph;
#X obj 59 59 loadbang;
#X connect 1 0 0 0;
#X connect 2 0 0 0;
#X connect 3 0 0 0;
#X connect 4 0 0 0;
#X connect 5 0 0 0;
#X connect 6 0 0 0;
#X connect 13 0 1 0;
#X connect 13 0 2 0;
#X connect 13 0 3 0;
#X connect 13 0 4 0;
#X connect 13 0 5 0;
#X connect 13 0 6 0;
#X restore 217 373 pd samples;
#X obj 37 518 *~;
#X obj 98 483 dbtorms;
#X obj 101 462 hsl 128 15 0 100 0 0 empty empty volume -2 -8 0 10 -262144
-1 -1 12700 1;
#X obj 28 549 dac~;
#X obj 31 230 random 3;
#X obj 31 251 sel 0 1 2;
#X obj 101 230 random 3;
#X obj 101 251 sel 0 1 2;
#X msg 86 39 750;
#X connect 0 0 1 0;
#X connect 0 1 2 0;
#X connect 1 0 21 0;
#X connect 2 0 23 0;
#X connect 3 0 4 0;
#X connect 4 0 7 0;
#X connect 5 0 25 0;
#X connect 6 0 4 1;
#X connect 7 0 8 0;
#X connect 7 0 9 0;
#X connect 8 0 7 1;
#X connect 9 0 0 0;
#X connect 10 0 17 0;
#X connect 11 0 17 0;
#X connect 12 0 17 0;
#X connect 13 0 17 0;
#X connect 14 0 17 0;
#X connect 15 0 17 0;
#X connect 17 0 20 0;
#X connect 17 0 20 1;
#X connect 18 0 17 1;
#X connect 19 0 18 0;
#X connect 21 0 22 0;
#X connect 22 0 10 0;
#X connect 22 1 11 0;
#X connect 22 2 12 0;
#X connect 23 0 24 0;
#X connect 24 0 13 0;
#X connect 24 1 14 0;
#X connect 24 2 15 0;
#X connect 25 0 6 0;
