#N canvas 730 313 216 286 10;
#X obj 62 173 sel 0;
#X obj 62 198 bng 15 250 50 0 empty empty empty 17 7 0 10 -262144 -1
-1;
#X obj 89 198 bng 15 250 50 0 empty empty empty 17 7 0 10 -262144 -1
-1;
#X obj 69 65 tgl 15 0 empty empty empty 17 7 0 10 -262144 -1 -1 1 1
;
#X obj 69 88 metro;
#X obj 96 23 loadbang;
#X msg 96 44 600;
#X floatatom 96 65 5 0 0 0 - - -;
#X obj 65 113 f;
#X obj 98 117 + 1;
#X obj 63 144 mod 2;
#X connect 0 0 1 0;
#X connect 0 1 2 0;
#X connect 3 0 4 0;
#X connect 4 0 8 0;
#X connect 5 0 6 0;
#X connect 6 0 7 0;
#X connect 7 0 4 1;
#X connect 8 0 9 0;
#X connect 8 0 10 0;
#X connect 9 0 8 1;
#X connect 10 0 0 0;
